<?xml version="1.0" encoding="UTF-8"?>
<svg id="Capa_1" data-name="Capa 1" xmlns="http://www.w3.org/2000/svg" xmlns:xlink="http://www.w3.org/1999/xlink" viewBox="0 0 133 70">
  <defs>
    <style>
      .cls-1 {
        fill: url(#Degradado_sin_nombre_6);
      }

      .cls-2 {
        fill: url(#Degradado_sin_nombre_5);
      }

      .cls-3 {
        fill: #25326b;
      }

      .cls-4 {
        fill: #e98d20;
      }

      .cls-5 {
        fill: none;
      }

      .cls-6 {
        clip-path: url(#clippath-1);
      }

      .cls-7 {
        fill: #3171b3;
      }

      .cls-8 {
        fill: #e8882b;
      }

      .cls-9 {
        clip-path: url(#clippath-2);
      }

      .cls-10 {
        clip-path: url(#clippath);
      }

      .cls-11 {
        fill: url(#Degradado_sin_nombre_6-2);
      }
    </style>
    <clipPath id="clippath">
      <path class="cls-5" d="M17.13,34.14l-2.34,2.4c-2.28,2.34-2.23,6.09.12,8.37,1.75,1.7,4.27,2.1,6.39,1.23,1.39-1.93,2.25-4.22,2.58-6.6l-2.84,2.92c-1.03,1.06-2.73,1.09-3.8.05-1.06-1.03-1.09-2.73-.05-3.8l2.26-2.32c.62-.64.61-1.66-.03-2.29-.31-.31-.72-.46-1.13-.46s-.84.16-1.16.49"/>
    </clipPath>
    <linearGradient id="Degradado_sin_nombre_6" data-name="Degradado sin nombre 6" x1="-6592.62" y1="7131.15" x2="-6592.53" y2="7131.15" gradientTransform="translate(-937128.03 1013745.85) rotate(-180) scale(142.15)" gradientUnits="userSpaceOnUse">
      <stop offset="0" stop-color="#25326b"/>
      <stop offset=".14" stop-color="#263b76"/>
      <stop offset=".39" stop-color="#2b5694"/>
      <stop offset=".59" stop-color="#3171b3"/>
      <stop offset=".73" stop-color="#297bac"/>
      <stop offset=".97" stop-color="#14969c"/>
      <stop offset=".99" stop-color="#12999b"/>
      <stop offset="1" stop-color="#12999b"/>
    </linearGradient>
    <clipPath id="clippath-1">
      <path class="cls-5" d="M28.04,23.56c-1.11,1.85-1.93,3.86-1.92,5.98l2.28-2.34c1.03-1.06,2.73-1.09,3.8-.05,1.06,1.03,1.09,2.73.05,3.8l-2.26,2.32c-.62.64-.61,1.66.03,2.29.64.62,1.66.61,2.29-.03l2.34-2.41c2.28-2.34,2.23-6.09-.12-8.37-1.15-1.12-2.64-1.68-4.13-1.68-.81,0-1.62.17-2.37.49"/>
    </clipPath>
    <linearGradient id="Degradado_sin_nombre_6-2" data-name="Degradado sin nombre 6" x1="-6457.11" y1="7127.95" x2="-6457.03" y2="7127.95" gradientTransform="translate(801833.63 -885079.03) scale(124.17)" xlink:href="#Degradado_sin_nombre_6"/>
    <clipPath id="clippath-2">
      <path class="cls-5" d="M24.12,26.96c-.9.93-1.36,2.21-1.24,3.5l1.23,13.49c2.02-2.07,3-4.94,2.69-7.82l-1.18-10.72-1.5,1.55Z"/>
    </clipPath>
    <linearGradient id="Degradado_sin_nombre_5" data-name="Degradado sin nombre 5" x1="-6473.81" y1="7128.35" x2="-6473.72" y2="7128.35" gradientTransform="translate(1058295.38 -1165240.49) scale(163.47)" gradientUnits="userSpaceOnUse">
      <stop offset="0" stop-color="#d8913f"/>
      <stop offset=".03" stop-color="#d8913f"/>
      <stop offset=".06" stop-color="#d8913f"/>
      <stop offset=".36" stop-color="#eba23c"/>
      <stop offset=".53" stop-color="#f8af3b"/>
      <stop offset=".63" stop-color="#f0a73b"/>
      <stop offset="1" stop-color="#d8913f"/>
      <stop offset="1" stop-color="#d8913f"/>
    </linearGradient>
  </defs>
  <g>
    <path class="cls-3" d="M44.26,46.27h-.66l-.54-1.42h-2.15l-.51,1.42h-.66l1.94-5.07h.62l1.95,5.07ZM42.88,44.31l-.8-2.16c-.03-.07-.05-.18-.08-.34h-.01c-.02.14-.05.26-.08.34l-.79,2.16h1.76Z"/>
    <path class="cls-3" d="M48.62,44.22c0,1.42-.64,2.13-1.93,2.13s-1.84-.68-1.84-2.05v-3.1h.59v3.06c0,1.04.44,1.56,1.31,1.56s1.27-.5,1.27-1.51v-3.11h.59v3.02Z"/>
    <path class="cls-3" d="M49.89,46.27v-5.07h1.4c1.79,0,2.68.82,2.68,2.47,0,.78-.25,1.41-.74,1.89-.5.47-1.16.71-1.99.71h-1.34ZM50.48,41.74v3.99h.76c.66,0,1.18-.18,1.55-.53.37-.36.55-.86.55-1.51,0-1.3-.69-1.95-2.07-1.95h-.79Z"/>
    <rect class="cls-3" x="54.96" y="41.2" width=".59" height="5.07"/>
    <polygon class="cls-3" points="59.46 41.74 57.48 41.74 57.48 43.49 59.31 43.49 59.31 44.02 57.48 44.02 57.48 46.27 56.89 46.27 56.89 41.2 59.46 41.2 59.46 41.74"/>
    <path class="cls-3" d="M63.88,46.27h-.66l-.54-1.42h-2.15l-.51,1.42h-.66l1.94-5.07h.62l1.95,5.07ZM62.49,44.31l-.8-2.16c-.03-.07-.05-.18-.08-.34h-.01c-.02.14-.05.26-.08.34l-.79,2.16h1.76Z"/>
    <path class="cls-3" d="M68.26,46.27h-.71l-.85-1.42c-.08-.13-.15-.24-.23-.34-.07-.09-.15-.17-.22-.23-.08-.06-.16-.1-.25-.13-.09-.03-.19-.04-.3-.04h-.49v2.16h-.59v-5.07h1.51c.22,0,.43.03.61.08.19.06.35.14.49.25.14.11.25.25.32.42.08.17.12.37.12.59,0,.18-.03.34-.08.49-.05.15-.13.28-.23.39-.1.12-.22.21-.35.3-.14.08-.29.14-.46.19h0c.08.05.16.09.22.14.06.05.12.11.18.17.06.07.11.14.17.22.06.08.12.18.19.29l.95,1.52ZM65.22,41.74v1.84h.81c.15,0,.29-.02.41-.07.13-.04.23-.11.33-.19.09-.08.16-.19.22-.31.05-.12.08-.26.08-.41,0-.27-.09-.48-.26-.63-.18-.15-.43-.23-.76-.23h-.81Z"/>
    <path class="cls-3" d="M73.55,46.27h-.59v-3.4c0-.13,0-.29.01-.46,0-.17.02-.35.04-.55h-.01c-.01.06-.04.12-.06.19-.03.07-.06.14-.09.2-.03.06-.06.12-.09.17s-.05.09-.06.12l-1.3,2.4h-.29l-1.3-2.4s-.03-.07-.06-.12c-.03-.05-.06-.11-.09-.18-.03-.06-.06-.13-.09-.2-.03-.07-.05-.13-.06-.19h-.01c0,.1.02.24.02.41,0,.17,0,.37,0,.6v3.39h-.57v-5.07h.74l1.31,2.41c.06.11.1.21.14.3.04.09.07.17.09.24h.02c.02-.07.05-.15.09-.25.04-.09.09-.2.15-.3l1.31-2.4h.74v5.07Z"/>
    <path class="cls-3" d="M78.81,46.27h-.66l-.54-1.42h-2.15l-.51,1.42h-.66l1.94-5.07h.61l1.95,5.07ZM77.42,44.31l-.8-2.16c-.03-.07-.05-.18-.08-.34h-.01c-.02.14-.05.26-.08.34l-.79,2.16h1.76Z"/>
    <g class="cls-10">
      <rect class="cls-1" x="9.45" y="31.59" width="17.49" height="17.49" transform="translate(-23.19 24.68) rotate(-45)"/>
    </g>
    <path class="cls-3" d="M21.3,46.15c.72-.3,1.4-.75,1.98-1.34l1.21-1.25c1.25-1.28,1.22-3.33-.06-4.58l-.55.56c-.34,2.38-1.2,4.67-2.58,6.6"/>
    <g class="cls-6">
      <rect class="cls-11" x="23.05" y="21.17" width="16.94" height="16.9" transform="translate(-11.69 31.56) rotate(-45.79)"/>
    </g>
    <path class="cls-3" d="M26.17,24.86l-1.21,1.25c-1.25,1.28-1.22,3.33.06,4.58l1.1-1.14c-.01-2.12.8-4.13,1.92-5.98-.68.3-1.32.73-1.87,1.3"/>
    <g class="cls-9">
      <rect class="cls-2" x="16.77" y="26.67" width="16.32" height="16.04" transform="translate(-17.32 28.37) rotate(-45.79)"/>
    </g>
    <g>
      <path class="cls-3" d="M46.36,25.62c1.24,0,2.33.52,3.34,1.58l.26.27,2.1-2-.23-.27c-.69-.8-1.51-1.42-2.46-1.85-2.07-.94-4.43-.85-6.36.23-1.05.59-1.87,1.38-2.43,2.35-.56.97-.85,2.09-.85,3.33,0,1.92.63,3.51,1.86,4.74,1.24,1.23,2.84,1.86,4.77,1.86,1.04,0,1.98-.18,2.8-.52.82-.35,1.69-.97,2.59-1.85l.27-.26-2.05-2.13-.27.27c-.61.61-1.17,1.03-1.67,1.25-1.06.48-2.49.44-3.54-.14-.56-.31-1-.75-1.31-1.29-.31-.55-.46-1.2-.46-1.92,0-1.04.34-1.88,1.05-2.59.71-.71,1.55-1.05,2.59-1.05Z"/>
      <path class="cls-3" d="M59.88,26.5c-.78-.44-1.62-.67-2.51-.67-1.23,0-2.33.43-3.28,1.29-1.08.98-1.62,2.22-1.62,3.69,0,1.37.48,2.55,1.44,3.51s2.12,1.45,3.47,1.45c.91,0,1.76-.22,2.52-.66s1.37-1.05,1.81-1.82c.44-.77.66-1.61.66-2.5s-.22-1.72-.66-2.47c-.44-.76-1.06-1.37-1.84-1.82ZM59.42,30.81c0,.66-.19,1.17-.58,1.58-.38.4-.86.6-1.44.6s-1.05-.19-1.43-.59c-.38-.4-.57-.92-.57-1.59s.19-1.16.58-1.56c.38-.4.85-.59,1.43-.59s1.07.19,1.45.59c.38.4.57.91.57,1.57Z"/>
      <path class="cls-3" d="M68.57,25.84c-.47,0-.93.09-1.38.27-.26.11-.54.26-.83.46v-.51h-2.94v9.49h2.94v-3.88c0-1.09.05-1.52.09-1.69.11-.45.29-.8.55-1.04.43-.4,1.13-.45,1.52-.15.17.13.29.32.36.58.06.21.13.73.13,1.98v4.2h2.92v-6.15c0-1.1-.29-1.96-.87-2.54-.67-.68-1.5-1.02-2.47-1.02Z"/>
      <path class="cls-3" d="M77.12,29.54l-.8-.4c-.44-.22-.53-.31-.58-.4,0-.02,0-.04.06-.09.07-.05.19-.08.35-.08.34,0,.76.24,1.24.71l.26.26,1.85-1.85-.2-.26c-.38-.51-.85-.91-1.41-1.18-.55-.27-1.14-.41-1.77-.41-.92,0-1.7.28-2.3.83-.61.56-.92,1.25-.92,2.05,0,1.22.78,2.23,2.33,3.01l.74.37c.55.28.75.52.75.65,0,.03,0,.09-.12.19-.22.17-.64.2-1.21-.1-.31-.17-.57-.38-.8-.64l-.28-.32-1.85,2.01.19.25c.83,1.09,1.96,1.64,3.35,1.64,1.05,0,1.91-.29,2.54-.88.65-.59.98-1.34.98-2.22,0-.66-.18-1.25-.54-1.75-.36-.49-.97-.94-1.88-1.39Z"/>
      <path class="cls-3" d="M87.51,26.5c-.78-.44-1.62-.67-2.51-.67-1.23,0-2.33.43-3.28,1.29-1.08.98-1.62,2.22-1.62,3.69,0,1.37.48,2.55,1.44,3.51.96.96,2.12,1.45,3.47,1.45.91,0,1.76-.22,2.52-.66.76-.44,1.37-1.05,1.81-1.82.44-.77.66-1.61.66-2.5s-.22-1.71-.66-2.48c-.44-.76-1.06-1.37-1.84-1.82ZM87.05,30.81c0,.66-.19,1.17-.58,1.58-.38.4-.86.6-1.44.6s-1.05-.19-1.43-.59c-.38-.4-.57-.92-.57-1.59s.19-1.16.58-1.56c.38-.4.85-.59,1.43-.59s1.07.19,1.45.59c.38.4.57.91.57,1.57Z"/>
      <path class="cls-3" d="M95.76,26.1c-.86-.42-1.69-.32-2.37.14-.08.05-.16.11-.23.17v-.35h-2.63v9.49h2.93v-4.33c0-1.43.16-2.03.29-2.27.24-.43.46-.43.53-.43.06,0,.2.02.47.15l.38.19.94-2.6-.3-.15Z"/>
      <path class="cls-3" d="M101.21,28.63c.4,0,.75.06,1.03.18.28.12.58.34.89.66l.2.21,2.44-1.34-.24-.34c-.47-.69-1.09-1.22-1.83-1.6-.74-.37-1.58-.56-2.5-.56-.99,0-1.91.22-2.72.66-.82.44-1.46,1.05-1.92,1.82-.46.77-.69,1.62-.69,2.53,0,1.32.47,2.48,1.41,3.46.94.98,2.25,1.48,3.88,1.48,1.82,0,3.26-.66,4.26-1.97l.24-.31-2.34-1.6-.22.27c-.47.58-1.13.87-2,.87-.7,0-1.24-.2-1.66-.6-.42-.4-.62-.91-.62-1.55s.21-1.19.65-1.61c.44-.42,1-.63,1.73-.63Z"/>
      <path class="cls-3" d="M108.08,25.68c.38,0,.7-.14.98-.41.27-.28.41-.61.41-1s-.14-.73-.41-1.01c-.27-.28-.6-.42-.99-.42s-.71.14-.98.41c-.27.27-.41.6-.41.99s.14.74.41,1.02c.27.28.61.42,1,.42Z"/>
      <rect class="cls-3" x="106.59" y="26.06" width="2.94" height="9.49"/>
      <path class="cls-3" d="M119.6,28.32c-.44-.76-1.06-1.37-1.84-1.82-.78-.44-1.62-.67-2.51-.67-1.23,0-2.33.43-3.28,1.29-1.08.98-1.62,2.22-1.62,3.69,0,1.37.48,2.55,1.44,3.51.96.96,2.12,1.45,3.47,1.45.91,0,1.76-.22,2.52-.66.76-.44,1.37-1.05,1.81-1.82.44-.77.66-1.61.66-2.5s-.22-1.71-.66-2.48ZM117.3,30.81c0,.66-.19,1.17-.58,1.58-.39.4-.86.6-1.44.6s-1.05-.19-1.43-.59c-.38-.4-.57-.92-.57-1.59s.19-1.16.57-1.56c.38-.4.85-.59,1.43-.59s1.07.19,1.45.59c.38.4.57.91.57,1.57Z"/>
    </g>
  </g>
  <g>
    <path class="cls-8" d="M110.31,42.21c0,.41-.35.79-.73.8-.4,0-.8-.36-.8-.73,0-.43.35-.78.79-.77.42,0,.74.32.73.71"/>
    <g>
      <path class="cls-8" d="M106.46,47.11c.51-.22.96-.36,1.34-.61.51-.34.96-.75,1.28-1.27.2-.32.22-.68,0-.98-.23-.3-.58-.27-.91-.15-.28.1-.55.24-.85.32.33-.62.86-.98,1.55-1,1.63-.04,2.68-.87,3.34-2.3.1.42.02.87-.31,1.43-.19.33-.44.62-.66.93-.17.22-.35.43-.51.65-.16.23-.31.49-.13.77.19.29.49.21.76.16.24-.05.47-.13.7-.18.33-.07.49.03.44.4-.08.56-.33,1.05-.62,1.52-.05.07-.1.15-.2.13-.14-.03-.09-.16-.1-.26,0-.1,0-.21,0-.31.08-.64-.03-.76-.67-.7-.3.03-.57.13-.83.28-.7.41-1.42.8-2.19,1.06-.43.15-.86.2-1.42.1"/>
      <g>
        <path class="cls-7" d="M84.16,42.79c0,.52-.16.91-.48,1.18-.32.27-.78.41-1.38.41h-.44v1.71h-1.02v-4.8h1.53c.58,0,1.02.13,1.33.38.3.25.45.62.45,1.12M81.86,43.56h.33c.31,0,.55-.06.7-.19.16-.12.23-.3.23-.54s-.07-.41-.2-.53c-.13-.11-.33-.17-.61-.17h-.46v1.42Z"/>
        <path class="cls-7" d="M88.37,46.1h-1v-2.14c0-.53-.2-.79-.59-.79-.28,0-.48.1-.61.29-.12.19-.19.5-.19.93v1.73h-1v-5.1h1v1.04c0,.08,0,.27-.02.57l-.02.3h.05c.22-.36.58-.54,1.06-.54.43,0,.76.12.98.35.22.23.33.56.33,1v2.39Z"/>
        <path class="cls-7" d="M91.73,46.1l-.19-.5h-.03c-.17.21-.34.36-.52.44-.18.08-.41.12-.7.12-.35,0-.63-.1-.83-.3-.2-.2-.3-.49-.3-.86s.14-.68.41-.86c.27-.18.68-.29,1.23-.31l.64-.02v-.16c0-.37-.19-.56-.57-.56-.29,0-.64.09-1.03.27l-.33-.68c.42-.22.89-.33,1.4-.33s.87.11,1.13.32c.26.21.39.54.39.98v2.44h-.7ZM91.43,44.4h-.39c-.29.02-.51.07-.65.17-.14.1-.21.24-.21.44,0,.28.16.42.49.42.23,0,.42-.07.56-.2.14-.13.21-.31.21-.53v-.3Z"/>
        <path class="cls-7" d="M95.51,42.36c.14,0,.25,0,.34.03l-.08.94c-.08-.02-.18-.03-.3-.03-.32,0-.57.08-.75.25-.18.16-.27.39-.27.69v1.87h-1v-3.67h.76l.15.62h.05c.11-.21.27-.37.46-.5.19-.13.4-.19.63-.19"/>
        <path class="cls-7" d="M99.79,46.1h-1v-2.14c0-.26-.04-.46-.13-.6-.09-.13-.23-.2-.42-.2-.26,0-.44.09-.56.28-.12.19-.17.5-.17.93v1.73h-1v-3.67h.76l.13.47h.06c.1-.17.24-.3.43-.4.19-.1.4-.14.64-.14.55,0,.92.18,1.12.54h.09c.1-.17.24-.3.43-.4.19-.09.41-.14.65-.14.42,0,.73.11.94.32.21.21.32.55.32,1.03v2.39h-1v-2.14c0-.26-.04-.46-.13-.6-.09-.13-.23-.2-.42-.2-.24,0-.43.09-.55.26-.12.18-.18.45-.18.83v1.84Z"/>
        <path class="cls-7" d="M105.44,46.1l-.19-.5h-.03c-.17.21-.34.36-.52.44-.18.08-.41.12-.7.12-.35,0-.63-.1-.83-.3-.2-.2-.3-.49-.3-.86s.14-.68.41-.86c.27-.18.68-.29,1.23-.31l.64-.02v-.16c0-.37-.19-.56-.57-.56-.29,0-.64.09-1.03.27l-.33-.68c.42-.22.89-.33,1.4-.33s.87.11,1.13.32c.26.21.39.54.39.98v2.44h-.7ZM105.14,44.4h-.39c-.29.02-.51.07-.65.17-.14.1-.21.24-.21.44,0,.28.16.42.49.42.23,0,.42-.07.56-.2.14-.13.21-.31.21-.53v-.3Z"/>
      </g>
      <path class="cls-8" d="M115.19,46.09c-.56,0-1-.15-1.31-.46-.32-.31-.47-.75-.47-1.31s.15-1.03.44-1.35c.29-.32.69-.48,1.21-.48s.87.14,1.15.42c.27.28.41.67.41,1.16v.46h-2.24c.01.27.09.48.24.63.15.15.36.23.63.23.21,0,.41-.02.59-.07.19-.04.38-.11.58-.21v.73c-.17.08-.34.14-.53.19-.19.04-.42.06-.69.06M115.06,43.16c-.2,0-.36.06-.47.19-.11.13-.18.31-.2.54h1.33c0-.23-.07-.42-.18-.54-.12-.13-.28-.19-.48-.19"/>
      <path class="cls-8" d="M119.32,42.49c.13,0,.24,0,.32.03l-.07.89c-.08-.02-.17-.03-.28-.03-.3,0-.54.08-.71.23-.17.16-.25.37-.25.65v1.77h-.95v-3.48h.72l.14.58h.05c.11-.19.25-.35.44-.47.18-.12.38-.18.6-.18"/>
      <path class="cls-4" d="M89.16,41.53c.74-1.26,1.85-2.12,3.12-2.79,2.14-1.13,4.44-1.63,6.85-1.75,2.81-.14,5.51.28,8.06,1.45,1.55.7,2.88,1.69,3.88,3.28-3.27-2.7-7.03-3.36-10.99-3.37-3.95,0-7.71.63-10.93,3.18Z"/>
    </g>
  </g>
</svg>